<svg class="diagram-root" style="background: #f5f6f6" xmlns="http://www.w3.org/2000/svg" xmlns:xlink="http://www.w3.org/1999/xlink"><style>.diagram-root { font-family: "Helvetica Neue", sans-serif; font-size: 12px; } .t { overflow: visible; } .t-bg { y: 40; fill: #fff;   } .th { fill: #005aa0;   } .tht { fill: #fff; font-size: 14px;  } .tf { fill: #323c46; overflow: visible; } .tf.pk { fill: #005aa0; font-weight: bold; } .tf.fk { font-weight: bold; } .ty { fill: #adb1b5; font-weight: normal; text-anchor: end; } .r { fill: transparent; stroke: #c3c3c3; stroke-width: 1; } .l { stroke: 1; } .i { fill: #c2c7ce; stroke: #c2c7ce; } .i.ix { fill: #afb3b6; stroke: #000; } .fa { fill: transparent; overflow: visible; } .fa .bg.hover { fill: #f7f7f7; } .c { cy: 12; r: 4; stroke: #d2d2dc; fill: #d2d2dc; } .hr { fill: transparent; stroke: #323c46; stroke-opacity: 0.035; stroke-width: 13; } .dc { stroke: #fa5a3c; fill: #fa5a3c; } .x { stroke: white; stroke-width: 1; } .hl .th { fill: #1b9bff; } .hl .tht {  } .fhl .bg { fill: #e7f4ff; } .fhls .bg {  } .r.hl { stroke: #1b9bff; } .dim { opacity: 0.25; }</style><g class="drawing-wrapper" transform="translate(88.73000000000005, 144.44) scale(1,1)"><g class="rs"><path d="M 127.9 291.99 m -1, 0 a 1,1 0 1,0 2,0 a 1,1 0 1,0 -2,0 M 127.9 291.99 m -0.5, 0 a 0.5,0.5 0 1,0 1,0 a 0.5,0.5 0 1,0 -1,0  M127.9 291.99 L127.9 291.99 139.9 291.99 M 127.9 297.99 m -1, 0 a 1,1 0 1,0 2,0 a 1,1 0 1,0 -2,0 M 127.9 297.99 m -0.5, 0 a 0.5,0.5 0 1,0 1,0 a 0.5,0.5 0 1,0 -1,0  M127.9 297.99 L127.9 297.99 134.9 291.99 127.9 285.99 M 127.9 285.99 m -1, 0 a 1,1 0 1,0 2,0 a 1,1 0 1,0 -2,0 M 127.9 285.99 m -0.5, 0 a 0.5,0.5 0 1,0 1,0 a 0.5,0.5 0 1,0 -1,0  M139.9 291.99 Q 302.63 291.99, 465.35 211.51 T 790.79 131.03 M 802.79 131.03 m -1, 0 a 1,1 0 1,0 2,0 a 1,1 0 1,0 -2,0 M 802.79 131.03 m -0.5, 0 a 0.5,0.5 0 1,0 1,0 a 0.5,0.5 0 1,0 -1,0  M802.79 131.03 L802.79 131.03 790.79 131.03 M796.79 137.03 L796.79 137.03 796.79 125.03" id="h1950675103" class="r"></path><path d="M 793.68 505.84 m -1, 0 a 1,1 0 1,0 2,0 a 1,1 0 1,0 -2,0 M 793.68 505.84 m -0.5, 0 a 0.5,0.5 0 1,0 1,0 a 0.5,0.5 0 1,0 -1,0  M793.68 505.84 L793.68 505.84 781.68 505.84 M 793.68 511.84 m -1, 0 a 1,1 0 1,0 2,0 a 1,1 0 1,0 -2,0 M 793.68 511.84 m -0.5, 0 a 0.5,0.5 0 1,0 1,0 a 0.5,0.5 0 1,0 -1,0  M793.68 511.84 L793.68 511.84 786.68 505.84 793.68 499.84 M 793.68 499.84 m -1, 0 a 1,1 0 1,0 2,0 a 1,1 0 1,0 -2,0 M 793.68 499.84 m -0.5, 0 a 0.5,0.5 0 1,0 1,0 a 0.5,0.5 0 1,0 -1,0  M781.68 505.84 Q 621.24 505.84, 460.79 398.92 T 139.9 291.99 M 127.9 291.99 m -1, 0 a 1,1 0 1,0 2,0 a 1,1 0 1,0 -2,0 M 127.9 291.99 m -0.5, 0 a 0.5,0.5 0 1,0 1,0 a 0.5,0.5 0 1,0 -1,0  M127.9 291.99 L127.9 291.99 139.9 291.99 M133.9 297.99 L133.9 297.99 133.9 285.99" id="h1607168654" class="r"></path><path d="M 793.68 530.8399999999999 m -1, 0 a 1,1 0 1,0 2,0 a 1,1 0 1,0 -2,0 M 793.68 530.8399999999999 m -0.5, 0 a 0.5,0.5 0 1,0 1,0 a 0.5,0.5 0 1,0 -1,0  M793.68 530.8399999999999 L793.68 530.8399999999999 781.68 530.8399999999999 M 793.68 536.8399999999999 m -1, 0 a 1,1 0 1,0 2,0 a 1,1 0 1,0 -2,0 M 793.68 536.8399999999999 m -0.5, 0 a 0.5,0.5 0 1,0 1,0 a 0.5,0.5 0 1,0 -1,0  M793.68 536.8399999999999 L793.68 536.8399999999999 786.68 530.8399999999999 793.68 524.8399999999999 M 793.68 524.8399999999999 m -1, 0 a 1,1 0 1,0 2,0 a 1,1 0 1,0 -2,0 M 793.68 524.8399999999999 m -0.5, 0 a 0.5,0.5 0 1,0 1,0 a 0.5,0.5 0 1,0 -1,0  M781.68 530.8399999999999 Q 612.83 530.8399999999999, 443.98 239.31 T 106.27 -52.22 M 94.27 -52.22 m -1, 0 a 1,1 0 1,0 2,0 a 1,1 0 1,0 -2,0 M 94.27 -52.22 m -0.5, 0 a 0.5,0.5 0 1,0 1,0 a 0.5,0.5 0 1,0 -1,0  M94.27 -52.22 L94.27 -52.22 106.27 -52.22 M100.27 -46.22 L100.27 -46.22 100.27 -58.22" id="h1139284389" class="r"></path><path d="M 94.27 -52.22 m -1, 0 a 1,1 0 1,0 2,0 a 1,1 0 1,0 -2,0 M 94.27 -52.22 m -0.5, 0 a 0.5,0.5 0 1,0 1,0 a 0.5,0.5 0 1,0 -1,0  M94.27 -52.22 L94.27 -52.22 106.27 -52.22 M 94.27 -46.22 m -1, 0 a 1,1 0 1,0 2,0 a 1,1 0 1,0 -2,0 M 94.27 -46.22 m -0.5, 0 a 0.5,0.5 0 1,0 1,0 a 0.5,0.5 0 1,0 -1,0  M94.27 -46.22 L94.27 -46.22 101.27 -52.22 94.27 -58.22 M 94.27 -58.22 m -1, 0 a 1,1 0 1,0 2,0 a 1,1 0 1,0 -2,0 M 94.27 -58.22 m -0.5, 0 a 0.5,0.5 0 1,0 1,0 a 0.5,0.5 0 1,0 -1,0  M106.27 -52.22 Q 277.4 -52.22, 448.53 51.91 T 790.79 156.03 M 802.79 156.03 m -1, 0 a 1,1 0 1,0 2,0 a 1,1 0 1,0 -2,0 M 802.79 156.03 m -0.5, 0 a 0.5,0.5 0 1,0 1,0 a 0.5,0.5 0 1,0 -1,0  M802.79 156.03 L802.79 156.03 790.79 156.03 M796.79 162.03 L796.79 162.03 796.79 150.03" id="h1915938444" class="r"></path><path d="M 812.69 309.05 m -1, 0 a 1,1 0 1,0 2,0 a 1,1 0 1,0 -2,0 M 812.69 309.05 m -0.5, 0 a 0.5,0.5 0 1,0 1,0 a 0.5,0.5 0 1,0 -1,0  M812.69 309.05 L812.69 309.05 800.69 309.05 M 812.69 315.05 m -1, 0 a 1,1 0 1,0 2,0 a 1,1 0 1,0 -2,0 M 812.69 315.05 m -0.5, 0 a 0.5,0.5 0 1,0 1,0 a 0.5,0.5 0 1,0 -1,0  M812.69 315.05 L812.69 315.05 805.69 309.05 812.69 303.05 M 812.69 303.05 m -1, 0 a 1,1 0 1,0 2,0 a 1,1 0 1,0 -2,0 M 812.69 303.05 m -0.5, 0 a 0.5,0.5 0 1,0 1,0 a 0.5,0.5 0 1,0 -1,0  M800.69 309.05 Q 627.09 309.05, 453.48 128.42 T 106.27 -52.22 M 94.27 -52.22 m -1, 0 a 1,1 0 1,0 2,0 a 1,1 0 1,0 -2,0 M 94.27 -52.22 m -0.5, 0 a 0.5,0.5 0 1,0 1,0 a 0.5,0.5 0 1,0 -1,0  M94.27 -52.22 L94.27 -52.22 106.27 -52.22 M100.27 -46.22 L100.27 -46.22 100.27 -58.22" id="h3177548053" class="r"></path><path d="M 803.76 -57.44 m -1, 0 a 1,1 0 1,0 2,0 a 1,1 0 1,0 -2,0 M 803.76 -57.44 m -0.5, 0 a 0.5,0.5 0 1,0 1,0 a 0.5,0.5 0 1,0 -1,0  M803.76 -57.44 L803.76 -57.44 791.76 -57.44 M 803.76 -51.44 m -1, 0 a 1,1 0 1,0 2,0 a 1,1 0 1,0 -2,0 M 803.76 -51.44 m -0.5, 0 a 0.5,0.5 0 1,0 1,0 a 0.5,0.5 0 1,0 -1,0  M803.76 -51.44 L803.76 -51.44 796.76 -57.44 803.76 -63.44 M 803.76 -63.44 m -1, 0 a 1,1 0 1,0 2,0 a 1,1 0 1,0 -2,0 M 803.76 -63.44 m -0.5, 0 a 0.5,0.5 0 1,0 1,0 a 0.5,0.5 0 1,0 -1,0  M791.76 -57.44 Q 620.39 -57.44, 449.02 -54.83 T 106.27 -52.22 M 94.27 -52.22 m -1, 0 a 1,1 0 1,0 2,0 a 1,1 0 1,0 -2,0 M 94.27 -52.22 m -0.5, 0 a 0.5,0.5 0 1,0 1,0 a 0.5,0.5 0 1,0 -1,0  M94.27 -52.22 L94.27 -52.22 106.27 -52.22 M100.27 -46.22 L100.27 -46.22 100.27 -58.22" id="h3000826536" class="r"></path></g><g class="hrs"></g><g class="ts"><svg width="167" height="100" x="-39.1" y="234.99" id="h475896179" class="t"><rect height="40" width="167" class="th"></rect><text x="13" y="25" class="tht">departments</text><rect height="60" width="167" class="t-bg" y="40"></rect><text x="13" y="61" class="tf pk">dept_no<tspan x="154" class="ty">VARCHAR</tspan></text><path d="M7,14A2,2 0 0,1 5,12A2,2 0 0,1 7,10A2,2 0 0,1 9,12A2,2 0 0,1 7,14M12.65,10C11.83,7.67 9.61,6 7, 6A6, 6 0 0, 0 1, 12A6, 6 0 0, 0 7, 18C9.61, 18 11.83, 16.33 12.65, 14H17V18H21V14H23V10H12.65Z" class="i pk" transform="translate(78, 48) scale(0.65)"></path><text x="13" y="86" class="tf">dept_name<tspan x="154" class="ty">VARCHAR</tspan></text></svg><svg width="147" height="150" x="793.68" y="448.84" id="h1090417462" class="t"><rect height="40" width="147" class="th"></rect><text x="13" y="25" class="tht">dept_emp</text><rect height="110" width="147" class="t-bg" y="40"></rect><text x="13" y="61" class="tf fk">dept_no<tspan x="134" class="ty">VARCHAR</tspan></text><text x="13" y="86" class="tf pk">emp_no<tspan x="134" class="ty">int</tspan></text><path d="M7,14A2,2 0 0,1 5,12A2,2 0 0,1 7,10A2,2 0 0,1 9,12A2,2 0 0,1 7,14M12.65,10C11.83,7.67 9.61,6 7, 6A6, 6 0 0, 0 1, 12A6, 6 0 0, 0 7, 18C9.61, 18 11.83, 16.33 12.65, 14H17V18H21V14H23V10H12.65Z" class="i pk" transform="translate(101, 73) scale(0.65)"></path><text x="13" y="111" class="tf">from_date<tspan x="134" class="ty">date</tspan></text><text x="13" y="136" class="tf">to_date<tspan x="134" class="ty">date</tspan></text></svg><svg width="147" height="150" x="802.79" y="74.03" id="h1676682957" class="t"><rect height="40" width="147" class="th"></rect><text x="13" y="25" class="tht">dept_manager</text><rect height="110" width="147" class="t-bg" y="40"></rect><text x="13" y="61" class="tf fk">dept_no<tspan x="134" class="ty">VARCHAR</tspan></text><text x="13" y="86" class="tf fk">emp_no<tspan x="134" class="ty">int</tspan></text><text x="13" y="111" class="tf">from_date<tspan x="134" class="ty">date</tspan></text><text x="13" y="136" class="tf">to_date<tspan x="134" class="ty">date</tspan></text></svg><svg width="161" height="200" x="-66.73" y="-109.22" id="h1639608377" class="t"><rect height="40" width="161" class="th"></rect><text x="13" y="25" class="tht">employees</text><rect height="160" width="161" class="t-bg" y="40"></rect><text x="13" y="61" class="tf pk">emp_no<tspan x="148" class="ty">int</tspan></text><path d="M7,14A2,2 0 0,1 5,12A2,2 0 0,1 7,10A2,2 0 0,1 9,12A2,2 0 0,1 7,14M12.65,10C11.83,7.67 9.61,6 7, 6A6, 6 0 0, 0 1, 12A6, 6 0 0, 0 7, 18C9.61, 18 11.83, 16.33 12.65, 14H17V18H21V14H23V10H12.65Z" class="i pk" transform="translate(115, 48) scale(0.65)"></path><text x="13" y="86" class="tf">birth_date<tspan x="148" class="ty">date</tspan></text><text x="13" y="111" class="tf">first_name<tspan x="148" class="ty">VARCHAR</tspan></text><text x="13" y="136" class="tf">last_name<tspan x="148" class="ty">VARCHAR</tspan></text><text x="13" y="161" class="tf">gender<tspan x="148" class="ty">VARCHAR</tspan></text><text x="13" y="186" class="tf">hire_date<tspan x="148" class="ty">date</tspan></text></svg><svg width="126" height="150" x="812.69" y="252.05" id="h2472833127" class="t"><rect height="40" width="126" class="th"></rect><text x="13" y="25" class="tht">salaries</text><rect height="110" width="126" class="t-bg" y="40"></rect><text x="13" y="61" class="tf pk">emp_no<tspan x="113" class="ty">int</tspan></text><path d="M7,14A2,2 0 0,1 5,12A2,2 0 0,1 7,10A2,2 0 0,1 9,12A2,2 0 0,1 7,14M12.65,10C11.83,7.67 9.61,6 7, 6A6, 6 0 0, 0 1, 12A6, 6 0 0, 0 7, 18C9.61, 18 11.83, 16.33 12.65, 14H17V18H21V14H23V10H12.65Z" class="i pk" transform="translate(80, 48) scale(0.65)"></path><text x="13" y="86" class="tf">salary<tspan x="113" class="ty">int</tspan></text><text x="13" y="111" class="tf">from_date<tspan x="113" class="ty">date</tspan></text><text x="13" y="136" class="tf">to_date<tspan x="113" class="ty">date</tspan></text></svg><svg width="141" height="150" x="803.76" y="-114.44" id="h311790747" class="t"><rect height="40" width="141" class="th"></rect><text x="13" y="25" class="tht">titles</text><rect height="110" width="141" class="t-bg" y="40"></rect><text x="13" y="61" class="tf fk">emp_no<tspan x="128" class="ty">int</tspan></text><text x="13" y="86" class="tf pk">title<tspan x="128" class="ty">VARCHAR</tspan></text><path d="M7,14A2,2 0 0,1 5,12A2,2 0 0,1 7,10A2,2 0 0,1 9,12A2,2 0 0,1 7,14M12.65,10C11.83,7.67 9.61,6 7, 6A6, 6 0 0, 0 1, 12A6, 6 0 0, 0 7, 18C9.61, 18 11.83, 16.33 12.65, 14H17V18H21V14H23V10H12.65Z" class="i pk" transform="translate(52, 73) scale(0.65)"></path><text x="13" y="111" class="tf">from_date<tspan x="128" class="ty">date</tspan></text><text x="13" y="136" class="tf">to_date<tspan x="128" class="ty">date</tspan></text></svg></g></g><text class="qdbd-link" x="10" y="20">www.quickdatabasediagrams.com</text></svg>